HIERARCHY
ROOT Hips
{
	OFFSET 0.000000 121.760803 0.000000
	CHANNELS 6 Xposition Yposition Zposition Xrotation Yrotation Zrotation 
	JOINT Spine
	{
		OFFSET 0.072000 7.257294 -0.789700
		CHANNELS 3 Xrotation Yrotation Zrotation
		JOINT Spine1
		{
			OFFSET 0.000000 12.508769 -0.658067
			CHANNELS 3 Xrotation Yrotation Zrotation
			JOINT Spine1_split
			{
				OFFSET 0.000000 12.508769 -0.658067
				CHANNELS 3 Xrotation Yrotation Zrotation
				JOINT Spine2
				{
					OFFSET 0.000000 12.508769 -0.658067
					CHANNELS 3 Xrotation Yrotation Zrotation
					JOINT Neck
					{
						OFFSET 0.000000 14.033295 7.520400
						CHANNELS 3 Xrotation Yrotation Zrotation
						JOINT Head
						{
							OFFSET 0.000000 8.198502 5.703100
							CHANNELS 3 Xrotation Yrotation Zrotation
							JOINT HeadTop_End
							{
								OFFSET 0.000000 17.760803 13.332701
								CHANNELS 3 Xrotation Yrotation Zrotation
								End Site
								{
									OFFSET 0.000000 0.000000 0.000000
								}
							}
						}
					}
					JOINT LeftShoulder
					{
						OFFSET 6.292450 5.785301 -0.669000
						CHANNELS 3 Xrotation Yrotation Zrotation
						JOINT LeftShoulder_split
						{
							OFFSET 6.292450 5.785301 -0.669000
							CHANNELS 3 Xrotation Yrotation Zrotation
							JOINT LeftArm
							{
								OFFSET 13.907140 -6.093903 1.965100
								CHANNELS 3 Xrotation Yrotation Zrotation
								JOINT LeftForeArm
								{
									OFFSET 34.140198 0.000000 0.000000
									CHANNELS 3 Xrotation Yrotation Zrotation
									JOINT LeftHand
									{
										OFFSET 40.960209 0.000000 0.000000
										CHANNELS 3 Xrotation Yrotation Zrotation
										JOINT LeftHandThumb1
										{
											OFFSET 10.006996 -7.170425 9.573125
											CHANNELS 3 Xrotation Yrotation Zrotation
											JOINT LeftHandThumb2
											{
												OFFSET 1.835007 -1.059448 1.059443
												CHANNELS 3 Xrotation Yrotation Zrotation
												JOINT LeftHandThumb3
												{
													OFFSET 2.112267 -1.219513 1.219518
													CHANNELS 3 Xrotation Yrotation Zrotation
													JOINT LeftHandThumb4
													{
														OFFSET 4.843811 -2.796570 2.796576
														CHANNELS 3 Xrotation Yrotation Zrotation
														End Site
														{
															OFFSET 0.000000 0.000000 0.000000
														}
													}
												}
											}
										}
										JOINT LeftHandIndex1
										{
											OFFSET 18.389847 -0.922348 4.596882
											CHANNELS 3 Xrotation Yrotation Zrotation
											JOINT LeftHandIndex2
											{
												OFFSET 4.711273 0.000000 0.000000
												CHANNELS 3 Xrotation Yrotation Zrotation
												JOINT LeftHandIndex3
												{
													OFFSET 2.886131 0.000000 0.000000
													CHANNELS 3 Xrotation Yrotation Zrotation
													JOINT LeftHandIndex4
													{
														OFFSET 6.145912 0.000000 0.000000
														CHANNELS 3 Xrotation Yrotation Zrotation
														End Site
														{
															OFFSET 0.000000 0.000000 0.000000
														}
													}
												}
											}
										}
										JOINT LeftHandMiddle1
										{
											OFFSET 18.013008 0.000000 0.000000
											CHANNELS 3 Xrotation Yrotation Zrotation
											JOINT LeftHandMiddle2
											{
												OFFSET 4.946693 0.000000 0.000000
												CHANNELS 3 Xrotation Yrotation Zrotation
												JOINT LeftHandMiddle3
												{
													OFFSET 3.342232 0.000000 0.000000
													CHANNELS 3 Xrotation Yrotation Zrotation
													JOINT LeftHandMiddle4
													{
														OFFSET 4.461754 0.000000 0.000000
														CHANNELS 3 Xrotation Yrotation Zrotation
														End Site
														{
															OFFSET 0.000000 0.000000 0.000000
														}
													}
												}
											}
										}
										JOINT LeftHandRing1
										{
											OFFSET 15.849892 -0.102921 -4.126150
											CHANNELS 3 Xrotation Yrotation Zrotation
											JOINT LeftHandRing2
											{
												OFFSET 3.527054 0.000000 0.000000
												CHANNELS 3 Xrotation Yrotation Zrotation
												JOINT LeftHandRing3
												{
													OFFSET 2.961098 0.000000 0.000000
													CHANNELS 3 Xrotation Yrotation Zrotation
													JOINT LeftHandRing4
													{
														OFFSET 4.927200 0.000000 0.000000
														CHANNELS 3 Xrotation Yrotation Zrotation
														End Site
														{
															OFFSET 0.000000 0.000000 0.000000
														}
													}
												}
											}
										}
										JOINT LeftHandPinky1
										{
											OFFSET 12.791824 -0.832031 -6.799156
											CHANNELS 3 Xrotation Yrotation Zrotation
											JOINT LeftHandPinky2
											{
												OFFSET 3.327133 0.000000 0.000000
												CHANNELS 3 Xrotation Yrotation Zrotation
												JOINT LeftHandPinky3
												{
													OFFSET 3.014900 0.000000 0.000000
													CHANNELS 3 Xrotation Yrotation Zrotation
													JOINT LeftHandPinky4
													{
														OFFSET 5.847786 0.000000 0.000000
														CHANNELS 3 Xrotation Yrotation Zrotation
														End Site
														{
															OFFSET 0.000000 0.000000 0.000000
														}
													}
												}
											}
										}
									}
								}
							}
						}
					}
					JOINT RightShoulder
					{
						OFFSET -6.292450 5.785301 -0.669000
						CHANNELS 3 Xrotation Yrotation Zrotation
						JOINT RightShoulder_split
						{
							OFFSET -6.292450 5.785301 -0.669000
							CHANNELS 3 Xrotation Yrotation Zrotation
							JOINT RightArm
							{
								OFFSET -13.907140 -6.093903 1.965100
								CHANNELS 3 Xrotation Yrotation Zrotation
								JOINT RightForeArm
								{
									OFFSET -34.140198 0.000000 0.000000
									CHANNELS 3 Xrotation Yrotation Zrotation
									JOINT RightHand
									{
										OFFSET -40.960209 0.000000 0.000000
										CHANNELS 3 Xrotation Yrotation Zrotation
										JOINT RightHandThumb1
										{
											OFFSET -10.007050 -7.170456 9.573117
											CHANNELS 3 Xrotation Yrotation Zrotation
											JOINT RightHandThumb2
											{
												OFFSET -1.835007 -1.059448 1.059443
												CHANNELS 3 Xrotation Yrotation Zrotation
												JOINT RightHandThumb3
												{
													OFFSET -2.112267 -1.219513 1.219518
													CHANNELS 3 Xrotation Yrotation Zrotation
													JOINT RightHandThumb4
													{
														OFFSET -4.843834 -2.796585 2.796590
														CHANNELS 3 Xrotation Yrotation Zrotation
														End Site
														{
															OFFSET 0.000000 0.000000 0.000000
														}
													}
												}
											}
										}
										JOINT RightHandIndex1
										{
											OFFSET -18.389870 -0.922424 4.596786
											CHANNELS 3 Xrotation Yrotation Zrotation
											JOINT RightHandIndex2
											{
												OFFSET -4.711273 0.000000 0.000000
												CHANNELS 3 Xrotation Yrotation Zrotation
												JOINT RightHandIndex3
												{
													OFFSET -2.886131 0.000000 0.000000
													CHANNELS 3 Xrotation Yrotation Zrotation
													JOINT RightHandIndex4
													{
														OFFSET -6.145920 0.000000 0.000000
														CHANNELS 3 Xrotation Yrotation Zrotation
														End Site
														{
															OFFSET 0.000000 0.000000 0.000000
														}
													}
												}
											}
										}
										JOINT RightHandMiddle1
										{
											OFFSET -18.013008 0.000000 0.000000
											CHANNELS 3 Xrotation Yrotation Zrotation
											JOINT RightHandMiddle2
											{
												OFFSET -4.946693 0.000000 0.000000
												CHANNELS 3 Xrotation Yrotation Zrotation
												JOINT RightHandMiddle3
												{
													OFFSET -3.342232 0.000000 0.000000
													CHANNELS 3 Xrotation Yrotation Zrotation
													JOINT RightHandMiddle4
													{
														OFFSET -4.461754 0.000000 0.000000
														CHANNELS 3 Xrotation Yrotation Zrotation
														End Site
														{
															OFFSET 0.000000 0.000000 0.000000
														}
													}
												}
											}
										}
										JOINT RightHandRing1
										{
											OFFSET -15.849876 -0.102936 -4.126237
											CHANNELS 3 Xrotation Yrotation Zrotation
											JOINT RightHandRing2
											{
												OFFSET -3.527054 0.000000 0.000000
												CHANNELS 3 Xrotation Yrotation Zrotation
												JOINT RightHandRing3
												{
													OFFSET -2.961098 0.000000 0.000000
													CHANNELS 3 Xrotation Yrotation Zrotation
													JOINT RightHandRing4
													{
														OFFSET -4.927200 0.000000 0.000000
														CHANNELS 3 Xrotation Yrotation Zrotation
														End Site
														{
															OFFSET 0.000000 0.000000 0.000000
														}
													}
												}
											}
										}
										JOINT RightHandPinky1
										{
											OFFSET -12.791786 -0.832077 -6.799222
											CHANNELS 3 Xrotation Yrotation Zrotation
											JOINT RightHandPinky2
											{
												OFFSET -3.327133 0.000000 0.000000
												CHANNELS 3 Xrotation Yrotation Zrotation
												JOINT RightHandPinky3
												{
													OFFSET -3.014900 0.000000 0.000000
													CHANNELS 3 Xrotation Yrotation Zrotation
													JOINT RightHandPinky4
													{
														OFFSET -5.847786 0.000000 0.000000
														CHANNELS 3 Xrotation Yrotation Zrotation
														End Site
														{
															OFFSET 0.000000 0.000000 0.000000
														}
													}
												}
											}
										}
									}
								}
							}
						}
					}
				}
			}
		}
	}
	JOINT LeftUpLeg
	{
		OFFSET 13.026900 -6.336304 -1.092800
		CHANNELS 3 Xrotation Yrotation Zrotation
		JOINT LeftLeg
		{
			OFFSET 0.524474 -46.096886 9.782700
			CHANNELS 3 Xrotation Yrotation Zrotation
			JOINT LeftFoot
			{
				OFFSET -0.524474 -53.427422 -12.948200
				CHANNELS 3 Xrotation Yrotation Zrotation
				JOINT LeftToeBase
				{
					OFFSET 0.192200 -14.009700 16.364100
					CHANNELS 3 Xrotation Yrotation Zrotation
					JOINT LeftToe_End
					{
						OFFSET -1.784700 -0.561700 9.474800
						CHANNELS 3 Xrotation Yrotation Zrotation
						End Site
						{
							OFFSET 0.000000 0.000000 0.000000
						}
					}
				}
			}
		}
	}
	JOINT RightUpLeg
	{
		OFFSET -12.883000 -6.336304 -1.092800
		CHANNELS 3 Xrotation Yrotation Zrotation
		JOINT RightLeg
		{
			OFFSET -0.524587 -46.096825 9.782800
			CHANNELS 3 Xrotation Yrotation Zrotation
			JOINT RightFoot
			{
				OFFSET 0.524587 -53.427383 -12.948300
				CHANNELS 3 Xrotation Yrotation Zrotation
				JOINT RightToeBase
				{
					OFFSET -0.192200 -14.009700 16.364100
					CHANNELS 3 Xrotation Yrotation Zrotation
					JOINT RightToe_End
					{
						OFFSET 1.784700 -0.561700 9.474800
						CHANNELS 3 Xrotation Yrotation Zrotation
						End Site
						{
							OFFSET 0.000000 0.000000 0.000000
						}
					}
				}
			}
		}
	}
}
MOTION
Frames: 4
Frame Time: 0.016667
-1.310679 109.152191 0.164785 -10.836973 -54.670900 -6.157884 5.275817 0.512873 -0.238817 4.893951 1.120458 0.299612 0.000000 0.000000 0.000000 8.444751 1.036570 0.033103 2.537417 5.572971 -0.185904 2.372534 37.187194 -7.338934 -0.000000 0.000000 -0.000000 9.150568 -24.592617 -2.246830 0.000000 0.000000 0.000000 -26.053179 8.217160 -60.618817 -91.270151 13.114528 -86.117204 -27.757923 -7.625873 -6.300477 0.699127 9.503390 -2.418118 5.975198 12.647536 1.348332 -23.873553 -17.664220 1.604935 0.000001 -0.000001 0.000000 9.479716 -1.289772 -20.785565 0.709478 2.796411 -28.467086 0.714010 2.804790 -28.559738 -0.000000 0.000001 0.000000 10.058158 -1.800599 -20.644711 1.774268 4.200484 -45.782058 1.632177 4.057788 -43.809404 -0.000002 -0.000001 -0.000002 1.254221 -0.073713 -17.945777 3.754095 5.463647 -68.965294 5.298513 9.638369 -33.747063 0.000002 -0.000001 -0.000004 -7.938253 1.609090 -6.495677 2.210559 4.583643 -51.475154 0.883824 3.096073 -31.858144 -0.000000 -0.000001 0.000001 10.411188 20.330611 -1.369219 0.000000 0.000000 0.000000 3.446554 33.597031 47.887843 68.289754 116.117464 -81.856190 -10.139716 21.396988 14.282930 13.942489 -4.273684 -5.300364 7.113161 -20.767445 -2.619504 -3.463285 -24.899767 -18.660463 -0.000000 0.000001 0.000003 0.357761 -5.832695 5.175841 0.094352 -0.933676 11.539912 0.777641 -2.578461 33.559936 -0.000001 0.000001 0.000002 3.764085 -12.080452 1.143777 5.714284 -4.535843 103.133568 3.160506 -4.410593 71.234966 0.000001 0.000001 0.000000 -12.155607 -12.623901 9.228351 6.566879 -4.248480 114.232346 3.755183 -4.569213 78.819693 -0.000001 -0.000001 0.000002 -17.635760 -10.496859 3.325430 4.993645 -4.645038 94.147929 3.647358 -4.546608 77.463416 -0.000001 0.000001 -0.000000 -23.420174 12.335114 17.547816 28.476908 13.944525 -0.133358 4.698388 0.501788 -10.910883 -0.208565 0.099060 0.223844 0.000000 -0.000001 0.000000 -20.945625 -18.044675 -23.279002 35.475046 -3.360773 -3.053145 -10.053082 1.324586 11.714060 1.899505 2.200699 2.183565 0.000000 0.000000 -0.000000 
-1.283278 108.876175 0.884257 -10.399341 -53.255757 -5.729715 5.219589 0.435421 -0.101393 4.881397 0.959835 0.315642 0.000000 0.000000 0.000000 8.443272 1.126748 0.051354 2.560041 5.635935 -0.196398 2.510868 38.008097 -7.338066 -0.000001 0.000000 -0.000000 8.936013 -24.743216 -2.968069 0.000000 0.000000 0.000000 -26.604871 8.959842 -60.009789 -91.306017 12.800037 -85.897641 -27.851650 -7.038007 -5.777691 0.699125 9.503396 -2.418119 5.975197 12.647536 1.348332 -23.873553 -17.664222 1.604935 0.000001 -0.000001 -0.000001 9.479716 -1.289763 -20.785565 0.709476 2.796406 -28.467084 0.714014 2.804788 -28.559738 0.000000 0.000001 0.000000 10.058157 -1.800600 -20.644711 1.774267 4.200486 -45.782061 1.632179 4.057787 -43.809404 0.000003 -0.000002 -0.000002 1.254218 -0.073705 -17.945779 3.754097 5.463642 -68.965294 5.298512 9.638369 -33.747063 0.000002 0.000003 0.000000 -7.938255 1.609092 -6.495673 2.210561 4.583643 -51.475154 0.883819 3.096074 -31.858144 0.000001 -0.000002 -0.000001 10.571302 20.013233 -2.157008 0.000000 0.000000 0.000000 3.272285 35.427525 47.123961 70.645910 116.398923 -84.504262 -10.445496 22.183742 13.476878 13.942492 -4.273687 -5.300363 7.113162 -20.767441 -2.619503 -3.463285 -24.899767 -18.660463 -0.000000 -0.000001 -0.000001 0.357761 -5.832696 5.175840 0.094351 -0.933676 11.539913 0.777642 -2.578461 33.559943 0.000000 0.000000 -0.000002 3.764085 -12.080454 1.143776 5.714284 -4.535843 103.133562 3.160507 -4.410593 71.234966 0.000001 0.000000 0.000000 -12.155603 -12.623902 9.228351 6.566880 -4.248478 114.232346 3.755183 -4.569214 78.819680 -0.000001 -0.000001 0.000001 -17.635762 -10.496861 3.325430 4.993644 -4.645039 94.147922 3.647357 -4.546610 77.463416 -0.000001 0.000001 -0.000000 -24.238352 12.236306 17.168078 29.507712 12.753334 -0.378806 3.983213 0.482991 -10.236396 -0.191021 0.105911 0.216627 -0.000000 0.000002 0.000000 -20.609264 -16.269569 -23.787206 36.863412 -5.241619 -1.761905 -10.332586 1.582383 10.364049 2.853606 0.034043 4.198981 0.000000 0.000001 -0.000000 
-1.235656 108.298012 1.562268 -9.989773 -51.844920 -5.214448 5.209380 0.419916 -0.170387 4.875919 0.893837 0.313338 0.000000 0.000000 0.000000 8.471695 1.741698 0.006405 2.611685 5.795502 -0.175230 2.871613 40.218503 -7.339840 0.000000 0.000000 0.000000 8.936009 -24.743301 -2.968072 0.000000 0.000000 0.000000 -27.022578 9.098543 -59.788751 -91.418134 12.788485 -85.389734 -28.033248 -6.726858 -5.796749 0.699128 9.503383 -2.418119 5.975196 12.647534 1.348331 -23.873552 -17.664223 1.604932 -0.000000 0.000003 0.000003 9.479717 -1.289771 -20.785565 0.709477 2.796407 -28.467084 0.714010 2.804789 -28.559741 0.000003 -0.000001 0.000001 10.058160 -1.800607 -20.644713 1.774267 4.200492 -45.782058 1.632180 4.057788 -43.809407 -0.000000 -0.000001 -0.000001 1.254220 -0.073714 -17.945777 3.754099 5.463642 -68.965294 5.298514 9.638369 -33.747063 -0.000003 -0.000000 -0.000002 -7.938254 1.609088 -6.495678 2.210563 4.583637 -51.475154 0.883818 3.096075 -31.858147 -0.000003 0.000000 -0.000000 10.565198 19.946541 -2.142259 0.000000 0.000000 0.000000 2.607393 35.855150 47.333549 71.764620 116.208401 -85.770947 -10.570414 21.998943 13.615191 13.942491 -4.273687 -5.300363 7.113160 -20.767441 -2.619503 -3.463284 -24.899767 -18.660463 -0.000001 -0.000001 -0.000001 0.357761 -5.832697 5.175841 0.094351 -0.933673 11.539913 0.777641 -2.578462 33.559943 -0.000000 0.000000 0.000003 3.764085 -12.080457 1.143779 5.714285 -4.535844 103.133568 3.160506 -4.410592 71.234966 0.000000 0.000000 -0.000000 -12.155608 -12.623903 9.228351 6.566879 -4.248478 114.232346 3.755183 -4.569215 78.819686 -0.000000 -0.000002 -0.000006 -17.635762 -10.496863 3.325429 4.993644 -4.645040 94.147929 3.647357 -4.546607 77.463416 0.000002 -0.000001 0.000002 -25.381861 12.061410 16.832562 31.143088 11.549557 -0.730003 3.069640 0.462014 -9.565764 -0.180391 0.111262 0.204435 -0.000000 0.000000 0.000000 -21.549262 -13.590058 -24.486498 40.045167 -6.657347 -1.064055 -8.157355 1.493644 10.118611 1.210368 -2.519810 5.583930 0.000001 0.000001 -0.000000 
-1.169260 107.662140 2.283914 -9.604066 -50.429237 -4.732400 5.208458 0.408793 -0.266784 4.870109 0.829824 0.304667 0.000000 0.000000 0.000000 8.520208 2.710890 -0.072871 2.689523 6.030634 -0.142777 3.412323 43.413946 -7.365483 0.000000 -0.000000 -0.000001 8.936030 -24.743296 -2.968067 0.000000 0.000000 0.000000 -27.403885 9.241058 -59.623057 -91.512828 12.777798 -84.960573 -28.164036 -6.454038 -5.810556 0.699128 9.503389 -2.418119 5.975197 12.647536 1.348332 -23.873548 -17.664220 1.604935 -0.000001 0.000002 0.000004 9.479718 -1.289767 -20.785565 0.709478 2.796402 -28.467088 0.714010 2.804788 -28.559738 0.000001 -0.000000 0.000000 10.058160 -1.800602 -20.644713 1.774264 4.200488 -45.782058 1.632177 4.057787 -43.809407 -0.000001 -0.000001 -0.000001 1.254219 -0.073706 -17.945777 3.754095 5.463642 -68.965294 5.298515 9.638369 -33.747063 -0.000000 -0.000001 -0.000001 -7.938252 1.609087 -6.495675 2.210562 4.583646 -51.475150 0.883821 3.096071 -31.858150 -0.000003 -0.000002 0.000001 10.560322 19.868225 -2.125415 0.000000 0.000000 0.000000 2.003533 36.236110 47.517134 72.763603 116.049722 -86.902525 -10.678813 21.824900 13.770443 13.942492 -4.273687 -5.300365 7.113160 -20.767441 -2.619504 -3.463284 -24.899771 -18.660463 -0.000000 0.000001 -0.000001 0.357763 -5.832696 5.175841 0.094351 -0.933676 11.539911 0.777643 -2.578462 33.559936 -0.000001 -0.000002 0.000000 3.764086 -12.080457 1.143778 5.714286 -4.535843 103.133568 3.160506 -4.410592 71.234966 0.000000 0.000000 0.000000 -12.155604 -12.623904 9.228351 6.566881 -4.248477 114.232346 3.755183 -4.569213 78.819686 0.000000 0.000001 -0.000001 -17.635762 -10.496863 3.325430 4.993645 -4.645039 94.147922 3.647359 -4.546605 77.463423 0.000002 0.000000 -0.000000 -26.560840 11.879023 16.536786 32.886528 10.347964 -1.162250 2.102191 0.419856 -8.822964 -0.171147 0.115090 0.194103 -0.000000 -0.000002 0.000000 -22.506428 -10.586452 -24.748984 43.280740 -7.876991 -0.621988 -5.479734 1.259236 10.080193 -1.140234 -4.889275 7.088917 -0.000001 -0.000000 0.000000 
